<mxfile host="Electron" agent="Mozilla/5.0 (Windows NT 10.0; Win64; x64) AppleWebKit/537.36 (KHTML, like Gecko) draw.io/26.0.16 Chrome/132.0.6834.196 Electron/34.2.0 Safari/537.36" version="26.0.16">
  <diagram name="PÃ¡gina-1" id="6x2JqdMgmgZzUIW8UwPl">
    <mxGraphModel dx="1478" dy="1069" grid="1" gridSize="10" guides="1" tooltips="1" connect="1" arrows="1" fold="1" page="1" pageScale="1" pageWidth="827" pageHeight="1169" math="0" shadow="0">
      <root>
        <mxCell id="0" />
        <mxCell id="1" parent="0" />
        <mxCell id="UxxSL7fzXN6poNYJw15S-1" value="" style="rounded=0;whiteSpace=wrap;html=1;" parent="1" vertex="1">
          <mxGeometry x="154.07" y="200" width="880" height="680" as="geometry" />
        </mxCell>
        <mxCell id="UxxSL7fzXN6poNYJw15S-6" value="VENTAS" style="rounded=0;whiteSpace=wrap;html=1;" parent="1" vertex="1">
          <mxGeometry x="198.13" y="660" width="791.87" height="187.5" as="geometry" />
        </mxCell>
        <mxCell id="MA-RUieipC_u9bo6jwIS-2" value="" style="rounded=0;whiteSpace=wrap;html=1;" vertex="1" parent="1">
          <mxGeometry x="198.13" y="225.71" width="791.87" height="174.29" as="geometry" />
        </mxCell>
        <mxCell id="UxxSL7fzXN6poNYJw15S-8" value="Diaria" style="labelPosition=center;verticalLabelPosition=middle;align=center;html=1;shape=mxgraph.basic.shaded_button;dx=10;fillColor=#E6E6E6;strokeColor=none;whiteSpace=wrap;" parent="1" vertex="1">
          <mxGeometry x="210.00024390243905" y="230" width="96.25" height="64.28571428571429" as="geometry" />
        </mxCell>
        <mxCell id="UxxSL7fzXN6poNYJw15S-9" value="Mensual" style="labelPosition=center;verticalLabelPosition=middle;align=center;html=1;shape=mxgraph.basic.shaded_button;dx=10;fillColor=#E6E6E6;strokeColor=none;whiteSpace=wrap;" parent="1" vertex="1">
          <mxGeometry x="210.00024390243905" y="319.4632142857143" width="96.25" height="64.28571428571429" as="geometry" />
        </mxCell>
        <mxCell id="UxxSL7fzXN6poNYJw15S-10" value="&lt;b&gt;&lt;font style=&quot;font-size: 17px;&quot;&gt;MODULO&lt;/font&gt;&lt;/b&gt;&lt;div&gt;&lt;b&gt;&lt;font style=&quot;font-size: 17px;&quot;&gt;PARA&amp;nbsp;&lt;/font&gt;&lt;/b&gt;&lt;/div&gt;&lt;div&gt;&lt;b&gt;&lt;font style=&quot;font-size: 17px;&quot;&gt;LA&lt;/font&gt;&lt;/b&gt;&lt;/div&gt;&lt;div&gt;&lt;b&gt;&lt;font style=&quot;font-size: 17px;&quot;&gt;SERIE&lt;/font&gt;&lt;/b&gt;&lt;/div&gt;&lt;div&gt;&lt;b&gt;&lt;font style=&quot;font-size: 17px;&quot;&gt;TEMPORAL&lt;/font&gt;&lt;/b&gt;&lt;/div&gt;" style="text;html=1;align=center;verticalAlign=middle;whiteSpace=wrap;rounded=0;" parent="1" vertex="1">
          <mxGeometry x="323.57390243902444" y="285.71000000000004" width="64.39024390243902" height="33.75" as="geometry" />
        </mxCell>
        <mxCell id="MA-RUieipC_u9bo6jwIS-1" value="MAPA" style="rounded=0;whiteSpace=wrap;html=1;" vertex="1" parent="1">
          <mxGeometry x="198.13" y="430" width="791.87" height="187.5" as="geometry" />
        </mxCell>
      </root>
    </mxGraphModel>
  </diagram>
</mxfile>
